<!--! https://github.com/svg/svgo-->
<!--! SVGO project logo by Yegor Bolshakov (http://xizzzy.ru/)-->
<svg xmlns="http://www.w3.org/2000/svg" xmlns:xlink="http://www.w3.org/1999/xlink" width="512" height="512">
<g><defs><path id="SVGID_1_" d="M512 274.094v-36.191l-31.59-5.743c-1.443-13.75-4.13-27.128-7.93-40.031l26.958-17.377-13.852-33.438-31.354 6.776c-6.551-12.005-14.164-23.341-22.705-33.898l18.286-26.415-25.594-25.591-26.409 18.285c-10.559-8.541-21.896-16.157-33.898-22.706l6.773-31.354-33.437-13.851-17.376 26.958c-12.902-3.801-26.281-6.485-40.032-7.931l-5.742-31.587h-36.193l-5.744 31.59c-13.751 1.444-27.13 4.129-40.033 7.931l-17.376-26.959-33.438 13.851 6.776 31.354c-12.004 6.549-23.341 14.165-33.899 22.706l-26.415-18.288-25.591 25.59 18.287 26.415c-8.541 10.558-16.156 21.895-22.705 33.898l-31.355-6.776-13.85 33.438 26.959 17.377c-3.801 12.902-6.486 26.28-7.93 40.03l-31.591 5.745v36.191l31.59 5.744c1.444 13.75 4.129 27.131 7.931 40.032l-26.959 17.378 13.85 33.435 31.355-6.773c6.549 12.005 14.165 23.341 22.705 33.898l-18.287 26.414 25.591 25.593 26.415-18.287c10.558 8.542 21.895 16.157 33.899 22.706l-6.776 31.354 33.438 13.852 17.377-26.958c12.902 3.8 26.281 6.483 40.031 7.93l5.744 31.59h36.192l5.744-31.59c13.751-1.444 27.129-4.13 40.03-7.93l17.378 26.957 33.436-13.852-6.772-31.354c12.004-6.551 23.34-14.164 33.897-22.706l26.414 18.286 25.593-25.593-18.286-26.412c8.541-10.561 16.154-21.896 22.706-33.899l31.354 6.772 13.853-33.435-26.958-17.377c3.8-12.902 6.483-26.282 7.93-40.032l31.585-5.742z"/></defs><clipPath id="SVGID_2_"><use xlink:href="#SVGID_1_" overflow="visible"/></clipPath><linearGradient id="SVGID_3_" gradientUnits="userSpaceOnUse" x1="480.818" y1="380.617" x2="31.183" y2="131.38"><stop offset="0" stop-color="#BDC6C9"/><stop offset=".092" stop-color="#ABB4B7"/><stop offset=".277" stop-color="#7D8588"/><stop offset=".483" stop-color="#444A4D"/><stop offset=".584" stop-color="#5E6669"/><stop offset=".772" stop-color="#899396"/><stop offset=".916" stop-color="#A3AFB2"/><stop offset="1" stop-color="#ADBABD"/></linearGradient><circle clip-path="url(#SVGID_2_)" fill="url(#SVGID_3_)" cx="256" cy="255.998" r="257"/><radialGradient id="SVGID_4_" cx="256" cy="255.998" r="257" gradientTransform="translate(0 .001)" gradientUnits="userSpaceOnUse"><stop offset=".73" stop-color="#004ED4" stop-opacity=".4"/><stop offset=".784" stop-color="#437CDE" stop-opacity=".319"/><stop offset=".842" stop-color="#83A8E7" stop-opacity=".234"/><stop offset=".894" stop-color="#B5CAEE" stop-opacity=".157"/><stop offset=".94" stop-color="#DAE3F4" stop-opacity=".089"/><stop offset=".977" stop-color="#F0F2F7" stop-opacity=".035"/><stop offset="1" stop-color="#F8F8F8" stop-opacity="0"/></radialGradient><circle clip-path="url(#SVGID_2_)" fill="url(#SVGID_4_)" cx="256" cy="255.998" r="257"/><linearGradient id="SVGID_5_" gradientUnits="userSpaceOnUse" x1="352.299" y1="494.346" x2="159.701" y2="17.65"><stop offset="0" stop-color="#fff" stop-opacity="0"/><stop offset=".5" stop-color="#4D5057" stop-opacity=".75"/><stop offset="1" stop-color="#fff" stop-opacity="0"/></linearGradient><circle clip-path="url(#SVGID_2_)" fill="url(#SVGID_5_)" cx="256" cy="255.998" r="257"/><radialGradient id="SVGID_6_" cx="256" cy="255.998" r="257" gradientTransform="translate(0 .001)" gradientUnits="userSpaceOnUse"><stop offset=".8" stop-color="#6B6B6B" stop-opacity="0"/><stop offset=".826" stop-color="#848484" stop-opacity=".02"/><stop offset=".883" stop-color="#B5B5B5" stop-opacity=".066"/><stop offset=".933" stop-color="#DADADA" stop-opacity=".107"/><stop offset=".974" stop-color="#F0F0F0" stop-opacity=".139"/><stop offset="1" stop-color="#F8F8F8" stop-opacity=".16"/></radialGradient><circle clip-path="url(#SVGID_2_)" fill="url(#SVGID_6_)" cx="256" cy="255.998" r="257"/><linearGradient id="SVGID_7_" gradientUnits="userSpaceOnUse" x1="74.274" y1="437.724" x2="437.726" y2="74.272"><stop offset="0" stop-color="#fff" stop-opacity="0"/><stop offset=".5" stop-color="#828282" stop-opacity=".6"/><stop offset="1" stop-color="#fff" stop-opacity="0"/></linearGradient><circle clip-path="url(#SVGID_2_)" fill="url(#SVGID_7_)" cx="256" cy="255.998" r="257"/><linearGradient id="SVGID_8_" gradientUnits="userSpaceOnUse" x1="45.46" y1="403.419" x2="466.539" y2="108.576"><stop offset=".2" stop-color="#fff" stop-opacity="0"/><stop offset=".5" stop-color="#fff" stop-opacity=".36"/><stop offset=".8" stop-color="#fff" stop-opacity="0"/></linearGradient><circle clip-path="url(#SVGID_2_)" fill="url(#SVGID_8_)" cx="256" cy="255.998" r="257"/><defs><path id="SVGID_9_" d="M256.001 50.999c-113.224 0-205.001 91.775-205.001 204.999s91.777 204.999 205.001 204.999c113.225 0 204.999-91.775 204.999-204.999s-91.774-204.999-204.999-204.999z"/></defs><clipPath id="SVGID_10_"><use xlink:href="#SVGID_9_" overflow="visible"/></clipPath><linearGradient id="SVGID_11_" gradientUnits="userSpaceOnUse" x1="441.158" y1="358.64" x2="70.835" y2="153.366" gradientTransform="matrix(0 -1 1 0 0 512)"><stop offset="0" stop-color="#BDC6C9"/><stop offset=".092" stop-color="#ABB4B7"/><stop offset=".277" stop-color="#7D8588"/><stop offset=".483" stop-color="#444A4D"/><stop offset=".584" stop-color="#5E6669"/><stop offset=".772" stop-color="#899396"/><stop offset=".916" stop-color="#A3AFB2"/><stop offset="1" stop-color="#ADBABD"/></linearGradient><path clip-path="url(#SVGID_10_)" fill="url(#SVGID_11_)" d="M256 44.334c116.894 0 211.676 94.771 211.676 211.664s-94.782 211.675-211.676 211.675c-116.893 0-211.665-94.782-211.665-211.675s94.772-211.664 211.665-211.664z"/><radialGradient id="SVGID_12_" cx="255.997" cy="256.006" r="217.969" gradientTransform="matrix(0 -.971 .971 0 7.396 504.601)" gradientUnits="userSpaceOnUse"><stop offset=".86" stop-color="#0058D4" stop-opacity=".6"/><stop offset="1" stop-color="#F8F8F8" stop-opacity="0"/></radialGradient><path clip-path="url(#SVGID_10_)" fill="url(#SVGID_12_)" d="M256 44.334c116.894 0 211.676 94.771 211.676 211.664s-94.782 211.675-211.676 211.675c-116.893 0-211.665-94.782-211.665-211.675s94.772-211.664 211.665-211.664z"/><linearGradient id="SVGID_13_" gradientUnits="userSpaceOnUse" x1="335.313" y1="452.313" x2="176.686" y2="59.7" gradientTransform="matrix(0 -1 1 0 0 512)"><stop offset="0" stop-color="#fff" stop-opacity="0"/><stop offset=".5" stop-color="#4D5057" stop-opacity=".75"/><stop offset="1" stop-color="#fff" stop-opacity="0"/></linearGradient><path clip-path="url(#SVGID_10_)" fill="url(#SVGID_13_)" d="M256 44.334c116.894 0 211.676 94.771 211.676 211.664s-94.782 211.675-211.676 211.675c-116.893 0-211.665-94.782-211.665-211.675s94.772-211.664 211.665-211.664z"/><linearGradient id="SVGID_14_" gradientUnits="userSpaceOnUse" x1="106.329" y1="405.673" x2="405.669" y2="106.333" gradientTransform="matrix(0 -1 1 0 0 512)"><stop offset="0" stop-color="#fff" stop-opacity="0"/><stop offset=".5" stop-color="#828282" stop-opacity=".6"/><stop offset="1" stop-color="#fff" stop-opacity="0"/></linearGradient><path clip-path="url(#SVGID_10_)" fill="url(#SVGID_14_)" d="M256 44.334c116.894 0 211.676 94.771 211.676 211.664s-94.782 211.675-211.676 211.675c-116.893 0-211.665-94.782-211.665-211.675s94.772-211.664 211.665-211.664z"/><linearGradient id="SVGID_15_" gradientUnits="userSpaceOnUse" x1="82.599" y1="377.421" x2="429.401" y2="134.588" gradientTransform="matrix(0 -1 1 0 0 512)"><stop offset=".2" stop-color="#fff" stop-opacity="0"/><stop offset=".5" stop-color="#fff" stop-opacity=".36"/><stop offset=".8" stop-color="#fff" stop-opacity="0"/></linearGradient><path clip-path="url(#SVGID_10_)" fill="url(#SVGID_15_)" d="M256 44.334c116.894 0 211.676 94.771 211.676 211.664s-94.782 211.675-211.676 211.675c-116.893 0-211.665-94.782-211.665-211.675s94.772-211.664 211.665-211.664z"/><defs><path id="SVGID_16_" d="M446 255.999c0-104.932-85.066-190-190-190s-190 85.068-190 190c0 104.934 85.066 189.998 190 189.998s190-85.064 190-189.998z"/></defs><clipPath id="SVGID_17_"><use xlink:href="#SVGID_16_" overflow="visible"/></clipPath><linearGradient id="SVGID_18_" gradientUnits="userSpaceOnUse" x1="427.61" y1="351.133" x2="84.388" y2="160.881"><stop offset="0" stop-color="#BDC6C9"/><stop offset=".092" stop-color="#ABB4B7"/><stop offset=".277" stop-color="#7D8588"/><stop offset=".483" stop-color="#444A4D"/><stop offset=".584" stop-color="#5E6669"/><stop offset=".772" stop-color="#899396"/><stop offset=".916" stop-color="#A3AFB2"/><stop offset="1" stop-color="#ADBABD"/></linearGradient><path clip-path="url(#SVGID_17_)" fill="url(#SVGID_18_)" d="M452.182 255.998c0 108.338-87.844 196.19-196.182 196.19-108.339 0-196.179-87.853-196.179-196.19s87.84-196.166 196.179-196.166c108.338 0 196.182 87.829 196.182 196.166z"/><radialGradient id="SVGID_19_" cx="260.891" cy="260.9" r="191.461" gradientTransform="matrix(.971 0 0 .971 7.397 7.398)" gradientUnits="userSpaceOnUse"><stop offset=".88" stop-color="#0037D4"/><stop offset="1" stop-color="#F8F8F8" stop-opacity="0"/></radialGradient><path clip-path="url(#SVGID_17_)" fill="url(#SVGID_19_)" d="M446.679 260.746c0 102.678-83.253 185.939-185.931 185.939-102.677 0-185.928-83.262-185.928-185.939 0-102.676 83.25-185.915 185.928-185.915s185.931 83.239 185.931 185.915z"/><radialGradient id="SVGID_20_" cx="256" cy="256" r="197.367" gradientTransform="matrix(.973 0 0 .973 6.961 6.96)" gradientUnits="userSpaceOnUse"><stop offset=".88" stop-color="#0066D4"/><stop offset="1" stop-color="#F8F8F8" stop-opacity="0"/></radialGradient><path clip-path="url(#SVGID_17_)" fill="url(#SVGID_20_)" d="M448 255.987c0 106.032-85.968 192.013-192.001 192.013-106.032 0-191.999-85.981-191.999-192.013 0-106.03 85.967-191.987 191.999-191.987 106.033 0 192.001 85.957 192.001 191.987z"/><linearGradient id="SVGID_21_" gradientUnits="userSpaceOnUse" x1="329.512" y1="437.945" x2="182.495" y2="74.067"><stop offset="0" stop-color="#fff" stop-opacity="0"/><stop offset=".5" stop-color="#4D5057" stop-opacity=".75"/><stop offset="1" stop-color="#fff" stop-opacity="0"/></linearGradient><path clip-path="url(#SVGID_17_)" fill="url(#SVGID_21_)" d="M452.182 255.998c0 108.338-87.844 196.19-196.182 196.19-108.339 0-196.179-87.853-196.179-196.19s87.84-196.166 196.179-196.166c108.338 0 196.182 87.829 196.182 196.166z"/><linearGradient id="SVGID_22_" gradientUnits="userSpaceOnUse" x1="117.285" y1="394.722" x2="394.718" y2="117.289"><stop offset="0" stop-color="#fff" stop-opacity="0"/><stop offset=".5" stop-color="#828282" stop-opacity=".6"/><stop offset="1" stop-color="#fff" stop-opacity="0"/></linearGradient><path clip-path="url(#SVGID_17_)" fill="url(#SVGID_22_)" d="M452.182 255.998c0 108.338-87.844 196.19-196.182 196.19-108.339 0-196.179-87.853-196.179-196.19s87.84-196.166 196.179-196.166c108.338 0 196.182 87.829 196.182 196.166z"/><linearGradient id="SVGID_23_" gradientUnits="userSpaceOnUse" x1="95.291" y1="368.536" x2="416.713" y2="143.474"><stop offset=".2" stop-color="#fff" stop-opacity="0"/><stop offset=".5" stop-color="#fff" stop-opacity=".36"/><stop offset=".8" stop-color="#fff" stop-opacity="0"/></linearGradient><path clip-path="url(#SVGID_17_)" fill="url(#SVGID_23_)" d="M452.182 255.998c0 108.338-87.844 196.19-196.182 196.19-108.339 0-196.179-87.853-196.179-196.19s87.84-196.166 196.179-196.166c108.338 0 196.182 87.829 196.182 196.166z"/><defs><path id="SVGID_24_" d="M256.001 80.999c-96.646 0-175.001 78.355-175.001 174.999 0 96.644 78.355 174.999 175.001 174.999 96.645 0 174.999-78.355 174.999-174.999 0-96.644-78.354-174.999-174.999-174.999z"/></defs><clipPath id="SVGID_25_"><use xlink:href="#SVGID_24_" overflow="visible"/></clipPath><linearGradient id="SVGID_26_" gradientUnits="userSpaceOnUse" x1="131.906" y1="131.904" x2="380.096" y2="380.094"><stop offset="0" stop-color="#14B9FF"/><stop offset="1" stop-color="#48007F"/></linearGradient><path clip-path="url(#SVGID_25_)" fill="url(#SVGID_26_)" d="M256.001 80.499c-96.922 0-175.501 78.578-175.501 175.499 0 96.92 78.579 175.499 175.501 175.499 96.921 0 175.499-78.579 175.499-175.499 0-96.921-78.578-175.499-175.499-175.499z"/><radialGradient id="SVGID_27_" cx="256" cy="255.998" r="175.5" gradientTransform="translate(0 .001)" gradientUnits="userSpaceOnUse"><stop offset=".33" stop-color="#006CC2" stop-opacity="0"/><stop offset=".628" stop-color="#016EC3" stop-opacity=".232"/><stop offset=".736" stop-color="#0575C7" stop-opacity=".315"/><stop offset=".813" stop-color="#0D80CE" stop-opacity=".374"/><stop offset=".874" stop-color="#1791D8" stop-opacity=".422"/><stop offset=".927" stop-color="#25A7E4" stop-opacity=".464"/><stop offset=".974" stop-color="#36C2F4" stop-opacity=".499"/><stop offset="1" stop-color="#42D5FF" stop-opacity=".52"/></radialGradient><path clip-path="url(#SVGID_25_)" fill="url(#SVGID_27_)" d="M256.001 80.499c-96.922 0-175.501 78.578-175.501 175.499 0 96.92 78.579 175.499 175.501 175.499 96.921 0 175.499-78.579 175.499-175.499 0-96.921-78.578-175.499-175.499-175.499z"/><radialGradient id="SVGID_28_" cx="202" cy="192.998" r="127" gradientTransform="translate(0 .001)" gradientUnits="userSpaceOnUse"><stop offset="0" stop-color="#E1FFFF" stop-opacity=".5"/><stop offset=".093" stop-color="#D9F9FD" stop-opacity=".453"/><stop offset=".239" stop-color="#C3E7F6" stop-opacity=".38"/><stop offset=".42" stop-color="#9ECAEC" stop-opacity=".29"/><stop offset=".628" stop-color="#6CA2DE" stop-opacity=".186"/><stop offset=".855" stop-color="#2C6FCC" stop-opacity=".072"/><stop offset="1" stop-color="#004CBF" stop-opacity="0"/></radialGradient><path clip-path="url(#SVGID_25_)" fill="url(#SVGID_28_)" d="M202.001 65.999c-70.134 0-127.001 56.867-127.001 127 0 70.128 56.867 126.999 127.001 126.999 70.129 0 126.999-56.871 126.999-126.999 0-70.133-56.87-127-126.999-127z"/><path opacity=".31" clip-path="url(#SVGID_25_)" fill="#191919" d="M256.001 67c-104.381 0-189.001 84.619-189.001 189s84.62 189 189.001 189 188.999-84.619 188.999-189-84.618-189-188.999-189zm0 361.481c-95.259 0-172.485-77.224-172.485-172.481 0-95.257 77.226-172.484 172.485-172.484 95.259 0 172.48 77.226 172.48 172.484 0 95.258-77.221 172.481-172.48 172.481z"/></g><g><line stroke="#E4EAF4" stroke-width="3" stroke-miterlimit="10" x1="231.267" y1="242.166" x2="296.602" y2="187.666" fill="none"/><line stroke="#E4EAF4" stroke-width="3" stroke-miterlimit="10" x1="296.602" y1="187.666" x2="245.867" y2="136.5" fill="none"/><line stroke="#E4EAF4" stroke-width="3" stroke-miterlimit="10" x1="296.602" y1="187.666" x2="316.102" y2="138.438" fill="none"/><line stroke="#E4EAF4" stroke-width="3" stroke-miterlimit="10" x1="231.267" y1="242.166" x2="146.035" y2="218.167" fill="none"/><line stroke="#E4EAF4" stroke-width="3" stroke-miterlimit="10" x1="231.267" y1="242.166" x2="180.567" y2="312.5" fill="none"/><line stroke="#E4EAF4" stroke-width="3" stroke-miterlimit="10" x1="231.267" y1="242.166" x2="287.867" y2="305.566" fill="none"/><line stroke="#E4EAF4" stroke-width="3" stroke-miterlimit="10" x1="287.867" y1="305.566" x2="360.201" y2="329.867" fill="none"/><line stroke="#E4EAF4" stroke-width="3" stroke-miterlimit="10" x1="287.867" y1="305.566" x2="253.303" y2="369.533" fill="none"/><g><radialGradient cx="231.268" cy="242.166" r="39" gradientUnits="userSpaceOnUse"><stop offset="0" stop-color="#fff"/><stop offset="1" stop-color="#fff" stop-opacity="0"/></radialGradient><defs><circle id="SVGID_30_" cx="231.267" cy="242.166" r="34.333"/></defs><clipPath id="SVGID_31_"><use xlink:href="#SVGID_30_" overflow="visible"/></clipPath><radialGradient id="SVGID_32_" cx="219.436" cy="230.335" r="51.497" gradientUnits="userSpaceOnUse"><stop offset="0" stop-color="#fff"/><stop offset="1" stop-color="#B8C4D1"/></radialGradient><circle clip-path="url(#SVGID_31_)" fill="url(#SVGID_32_)" cx="219.436" cy="230.335" r="51.498"/><radialGradient id="SVGID_33_" cx="228.484" cy="237.666" r="34.647" gradientTransform="matrix(1.063 0 0 1.063 -12.968 -11.834)" gradientUnits="userSpaceOnUse"><stop offset="0" stop-color="#fff" stop-opacity="0"/><stop offset=".265" stop-color="#FCFDFE" stop-opacity=".212"/><stop offset=".449" stop-color="#F3F6FD" stop-opacity=".359"/><stop offset=".609" stop-color="#E4EBF9" stop-opacity=".487"/><stop offset=".755" stop-color="#CEDBF5" stop-opacity=".604"/><stop offset=".89" stop-color="#B2C7EF" stop-opacity=".712"/><stop offset="1" stop-color="#95B2E9" stop-opacity=".8"/></radialGradient><circle clip-path="url(#SVGID_31_)" fill="url(#SVGID_33_)" cx="229.934" cy="240.833" r="36.833"/></g><g><radialGradient cx="180.567" cy="312.5" r="27.3" gradientUnits="userSpaceOnUse"><stop offset="0" stop-color="#fff"/><stop offset="1" stop-color="#fff" stop-opacity="0"/></radialGradient><defs><circle id="SVGID_35_" cx="180.568" cy="312.5" r="24.033"/></defs><clipPath id="SVGID_36_"><use xlink:href="#SVGID_35_" overflow="visible"/></clipPath><radialGradient id="SVGID_37_" cx="172.285" cy="304.218" r="36.048" gradientUnits="userSpaceOnUse"><stop offset="0" stop-color="#fff"/><stop offset="1" stop-color="#B8C4D1"/></radialGradient><circle clip-path="url(#SVGID_36_)" fill="url(#SVGID_37_)" cx="172.285" cy="304.219" r="36.048"/><radialGradient id="SVGID_38_" cx="181.17" cy="304.201" r="24.252" gradientTransform="matrix(1.063 0 0 1.063 -12.968 -11.834)" gradientUnits="userSpaceOnUse"><stop offset="0" stop-color="#fff" stop-opacity="0"/><stop offset=".265" stop-color="#FCFDFE" stop-opacity=".212"/><stop offset=".449" stop-color="#F3F6FD" stop-opacity=".359"/><stop offset=".609" stop-color="#E4EAF9" stop-opacity=".487"/><stop offset=".755" stop-color="#CED9F5" stop-opacity=".604"/><stop offset=".89" stop-color="#B2C4EF" stop-opacity=".712"/><stop offset="1" stop-color="#95AEE9" stop-opacity=".8"/></radialGradient><circle clip-path="url(#SVGID_36_)" fill="url(#SVGID_38_)" cx="179.634" cy="311.566" r="25.783"/></g><g><radialGradient cx="288.801" cy="306.5" r="27.3" gradientUnits="userSpaceOnUse"><stop offset="0" stop-color="#fff"/><stop offset="1" stop-color="#fff" stop-opacity="0"/></radialGradient><defs><circle id="SVGID_40_" cx="288.801" cy="306.5" r="24.033"/></defs><clipPath id="SVGID_41_"><use xlink:href="#SVGID_40_" overflow="visible"/></clipPath><radialGradient id="SVGID_42_" cx="280.519" cy="298.218" r="36.048" gradientUnits="userSpaceOnUse"><stop offset="0" stop-color="#fff"/><stop offset="1" stop-color="#B8C4D1"/></radialGradient><circle clip-path="url(#SVGID_41_)" fill="url(#SVGID_42_)" cx="280.519" cy="298.219" r="36.048"/><radialGradient id="SVGID_43_" cx="282.978" cy="298.557" r="24.253" gradientTransform="matrix(1.063 0 0 1.063 -12.968 -11.834)" gradientUnits="userSpaceOnUse"><stop offset="0" stop-color="#fff" stop-opacity="0"/><stop offset=".265" stop-color="#FCFDFE" stop-opacity=".212"/><stop offset=".449" stop-color="#F3F5FD" stop-opacity=".359"/><stop offset=".609" stop-color="#E4E7F9" stop-opacity=".487"/><stop offset=".755" stop-color="#CED4F5" stop-opacity=".604"/><stop offset=".89" stop-color="#B2BBEF" stop-opacity=".712"/><stop offset="1" stop-color="#95A2E9" stop-opacity=".8"/></radialGradient><circle clip-path="url(#SVGID_41_)" fill="url(#SVGID_43_)" cx="287.867" cy="305.566" r="25.783"/></g><g><radialGradient cx="146.034" cy="218.167" r="19.5" gradientUnits="userSpaceOnUse"><stop offset="0" stop-color="#fff"/><stop offset="1" stop-color="#fff" stop-opacity="0"/></radialGradient><defs><circle id="SVGID_45_" cx="146.035" cy="218.167" r="17.167"/></defs><clipPath id="SVGID_46_"><use xlink:href="#SVGID_45_" overflow="visible"/></clipPath><radialGradient id="SVGID_47_" cx="140.119" cy="212.251" r="25.749" gradientUnits="userSpaceOnUse"><stop offset="0" stop-color="#fff"/><stop offset="1" stop-color="#B8C4D1"/></radialGradient><circle clip-path="url(#SVGID_46_)" fill="url(#SVGID_47_)" cx="140.119" cy="212.252" r="25.749"/><radialGradient id="SVGID_48_" cx="148.938" cy="215.719" r="17.323" gradientTransform="matrix(1.063 0 0 1.063 -12.968 -11.834)" gradientUnits="userSpaceOnUse"><stop offset="0" stop-color="#fff" stop-opacity="0"/><stop offset=".265" stop-color="#FCFEFE" stop-opacity=".212"/><stop offset=".449" stop-color="#F3F9FD" stop-opacity=".359"/><stop offset=".609" stop-color="#E4F1F9" stop-opacity=".487"/><stop offset=".755" stop-color="#CEE5F5" stop-opacity=".604"/><stop offset=".89" stop-color="#B2D6EF" stop-opacity=".712"/><stop offset="1" stop-color="#95C7E9" stop-opacity=".8"/></radialGradient><circle clip-path="url(#SVGID_46_)" fill="url(#SVGID_48_)" cx="145.368" cy="217.5" r="18.416"/></g><g><radialGradient cx="296.602" cy="187.667" r="19.5" gradientUnits="userSpaceOnUse"><stop offset="0" stop-color="#fff"/><stop offset="1" stop-color="#fff" stop-opacity="0"/></radialGradient><defs><circle id="SVGID_50_" cx="296.603" cy="187.667" r="17.167"/></defs><clipPath id="SVGID_51_"><use xlink:href="#SVGID_50_" overflow="visible"/></clipPath><radialGradient id="SVGID_52_" cx="290.687" cy="181.751" r="25.749" gradientUnits="userSpaceOnUse"><stop offset="0" stop-color="#fff"/><stop offset="1" stop-color="#B8C4D1"/></radialGradient><circle clip-path="url(#SVGID_51_)" fill="url(#SVGID_52_)" cx="290.687" cy="181.751" r="25.749"/><radialGradient id="SVGID_53_" cx="290.568" cy="187.029" r="17.323" gradientTransform="matrix(1.063 0 0 1.063 -12.968 -11.834)" gradientUnits="userSpaceOnUse"><stop offset="0" stop-color="#fff" stop-opacity="0"/><stop offset=".265" stop-color="#FCFDFE" stop-opacity=".212"/><stop offset=".449" stop-color="#F3F7FD" stop-opacity=".359"/><stop offset=".609" stop-color="#E4ECF9" stop-opacity=".487"/><stop offset=".755" stop-color="#CEDEF5" stop-opacity=".604"/><stop offset=".89" stop-color="#B2CBEF" stop-opacity=".712"/><stop offset="1" stop-color="#95B7E9" stop-opacity=".8"/></radialGradient><circle clip-path="url(#SVGID_51_)" fill="url(#SVGID_53_)" cx="295.936" cy="187" r="18.416"/></g><g><radialGradient cx="253.303" cy="369.533" r="19.5" gradientUnits="userSpaceOnUse"><stop offset="0" stop-color="#fff"/><stop offset="1" stop-color="#fff" stop-opacity="0"/></radialGradient><defs><circle id="SVGID_55_" cx="253.304" cy="369.533" r="17.167"/></defs><clipPath id="SVGID_56_"><use xlink:href="#SVGID_55_" overflow="visible"/></clipPath><radialGradient id="SVGID_57_" cx="247.388" cy="363.618" r="25.749" gradientUnits="userSpaceOnUse"><stop offset="0" stop-color="#fff"/><stop offset="1" stop-color="#B8C4D1"/></radialGradient><circle clip-path="url(#SVGID_56_)" fill="url(#SVGID_57_)" cx="247.388" cy="363.619" r="25.749"/><radialGradient id="SVGID_58_" cx="249.839" cy="358.1" r="17.323" gradientTransform="matrix(1.063 0 0 1.063 -12.968 -11.834)" gradientUnits="userSpaceOnUse"><stop offset="0" stop-color="#fff" stop-opacity="0"/><stop offset=".265" stop-color="#FCFCFE" stop-opacity=".212"/><stop offset=".449" stop-color="#F3F3FD" stop-opacity=".359"/><stop offset=".609" stop-color="#E4E4F9" stop-opacity=".487"/><stop offset=".755" stop-color="#CECFF5" stop-opacity=".604"/><stop offset=".89" stop-color="#B2B4EF" stop-opacity=".712"/><stop offset="1" stop-color="#9598E9" stop-opacity=".8"/></radialGradient><circle clip-path="url(#SVGID_56_)" fill="url(#SVGID_58_)" cx="252.637" cy="368.867" r="18.416"/></g><g><radialGradient cx="360.867" cy="330.533" r="19.5" gradientUnits="userSpaceOnUse"><stop offset="0" stop-color="#fff"/><stop offset="1" stop-color="#fff" stop-opacity="0"/></radialGradient><defs><circle id="SVGID_60_" cx="360.868" cy="330.533" r="17.167"/></defs><clipPath id="SVGID_61_"><use xlink:href="#SVGID_60_" overflow="visible"/></clipPath><radialGradient id="SVGID_62_" cx="354.952" cy="324.618" r="25.749" gradientUnits="userSpaceOnUse"><stop offset="0" stop-color="#fff"/><stop offset="1" stop-color="#B8C4D1"/></radialGradient><circle clip-path="url(#SVGID_61_)" fill="url(#SVGID_62_)" cx="354.952" cy="324.619" r="25.749"/><radialGradient id="SVGID_63_" cx="351.019" cy="321.415" r="17.322" gradientTransform="matrix(1.063 0 0 1.063 -12.968 -11.834)" gradientUnits="userSpaceOnUse"><stop offset="0" stop-color="#fff" stop-opacity="0"/><stop offset=".265" stop-color="#FDFCFE" stop-opacity=".212"/><stop offset=".449" stop-color="#F5F3FD" stop-opacity=".359"/><stop offset=".609" stop-color="#E9E4F9" stop-opacity=".487"/><stop offset=".755" stop-color="#D7CEF5" stop-opacity=".604"/><stop offset=".89" stop-color="#C0B2EF" stop-opacity=".712"/><stop offset="1" stop-color="#A995E9" stop-opacity=".8"/></radialGradient><circle clip-path="url(#SVGID_61_)" fill="url(#SVGID_63_)" cx="360.201" cy="329.867" r="18.416"/></g><g><radialGradient cx="245.867" cy="136.5" r="15.6" gradientUnits="userSpaceOnUse"><stop offset="0" stop-color="#fff"/><stop offset="1" stop-color="#fff" stop-opacity="0"/></radialGradient><defs><circle id="SVGID_65_" cx="245.867" cy="136.5" r="13.733"/></defs><clipPath id="SVGID_66_"><use xlink:href="#SVGID_65_" overflow="visible"/></clipPath><radialGradient id="SVGID_67_" cx="241.135" cy="131.768" r="20.599" gradientUnits="userSpaceOnUse"><stop offset="0" stop-color="#fff"/><stop offset="1" stop-color="#B8C4D1"/></radialGradient><circle clip-path="url(#SVGID_66_)" fill="url(#SVGID_67_)" cx="241.135" cy="131.768" r="20.599"/><radialGradient id="SVGID_68_" cx="242.97" cy="139.026" r="13.859" gradientTransform="matrix(1.063 0 0 1.063 -12.968 -11.834)" gradientUnits="userSpaceOnUse"><stop offset="0" stop-color="#fff" stop-opacity="0"/><stop offset=".265" stop-color="#FCFEFE" stop-opacity=".212"/><stop offset=".449" stop-color="#F3F9FD" stop-opacity=".359"/><stop offset=".609" stop-color="#E4F1F9" stop-opacity=".487"/><stop offset=".755" stop-color="#CEE5F5" stop-opacity=".604"/><stop offset=".89" stop-color="#B2D6EF" stop-opacity=".712"/><stop offset="1" stop-color="#95C7E9" stop-opacity=".8"/></radialGradient><circle clip-path="url(#SVGID_66_)" fill="url(#SVGID_68_)" cx="245.334" cy="135.967" r="14.733"/></g><g><radialGradient cx="316.102" cy="138.439" r="15.6" gradientUnits="userSpaceOnUse"><stop offset="0" stop-color="#fff"/><stop offset="1" stop-color="#fff" stop-opacity="0"/></radialGradient><defs><circle id="SVGID_70_" cx="316.102" cy="138.438" r="13.733"/></defs><clipPath id="SVGID_71_"><use xlink:href="#SVGID_70_" overflow="visible"/></clipPath><radialGradient id="SVGID_72_" cx="311.369" cy="133.706" r="20.599" gradientUnits="userSpaceOnUse"><stop offset="0" stop-color="#fff"/><stop offset="1" stop-color="#B8C4D1"/></radialGradient><circle clip-path="url(#SVGID_71_)" fill="url(#SVGID_72_)" cx="311.369" cy="133.707" r="20.599"/><radialGradient id="SVGID_73_" cx="309.035" cy="140.85" r="13.859" gradientTransform="matrix(1.063 0 0 1.063 -12.968 -11.834)" gradientUnits="userSpaceOnUse"><stop offset="0" stop-color="#fff" stop-opacity="0"/><stop offset=".265" stop-color="#FCFDFE" stop-opacity=".212"/><stop offset=".449" stop-color="#F3F7FD" stop-opacity=".359"/><stop offset=".609" stop-color="#E4ECF9" stop-opacity=".487"/><stop offset=".755" stop-color="#CEDDF5" stop-opacity=".604"/><stop offset=".89" stop-color="#B2C9EF" stop-opacity=".712"/><stop offset="1" stop-color="#95B5E9" stop-opacity=".8"/></radialGradient><circle clip-path="url(#SVGID_71_)" fill="url(#SVGID_73_)" cx="315.568" cy="137.905" r="14.733"/></g></g>
</svg>
