<svg xmlns="http://www.w3.org/2000/svg" width="512" height="512">
<path fill="#7c8689" d="M512 274.096v-36.192l-31.59-5.743c-1.443-13.75-4.13-27.129-7.93-40.032l26.958-17.377-13.851-33.438-31.354 6.776c-6.55-12.005-14.164-23.341-22.705-33.899l18.286-26.415-25.593-25.591-26.411 18.286c-10.559-8.541-21.896-16.157-33.899-22.706l6.774-31.354-33.437-13.85-17.376 26.958c-12.902-3.801-26.281-6.486-40.032-7.931l-5.742-31.588h-36.193l-5.744 31.59c-13.751 1.444-27.13 4.129-40.033 7.931l-17.376-26.959-33.438 13.85 6.776 31.355c-12.004 6.549-23.341 14.165-33.899 22.706l-26.415-18.288-25.591 25.591 18.287 26.415c-8.541 10.558-16.156 21.895-22.705 33.899l-31.355-6.776-13.85 33.438 26.959 17.377c-3.801 12.902-6.486 26.281-7.93 40.031l-31.591 5.744v36.192l31.59 5.744c1.444 13.75 4.129 27.131 7.931 40.032l-26.959 17.378 13.85 33.436 31.355-6.774c6.549 12.005 14.165 23.341 22.705 33.899l-18.287 26.414 25.591 25.592 26.415-18.287c10.558 8.542 21.895 16.157 33.899 22.706l-6.776 31.354 33.438 13.851 17.377-26.958c12.902 3.8 26.281 6.484 40.031 7.93l5.744 31.59h36.192l5.744-31.59c13.751-1.444 27.129-4.13 40.03-7.93l17.378 26.957 33.436-13.851-6.773-31.354c12.004-6.55 23.34-14.164 33.898-22.706l26.414 18.286 25.592-25.592-18.286-26.412c8.541-10.561 16.155-21.896 22.706-33.9l31.354 6.773 13.852-33.436-26.958-17.377c3.8-12.902 6.484-26.282 7.93-40.032l31.587-5.743zM256 461.623c-113.563 0-205.625-92.061-205.625-205.624 0-113.563 92.062-205.624 205.625-205.624 113.563 0 205.624 92.061 205.624 205.624 0 113.564-92.061 205.624-205.624 205.624zM256 64.237c-105.908 0-191.763 85.855-191.763 191.763s85.855 191.763 191.763 191.763 191.762-85.855 191.762-191.763-85.854-191.763-191.762-191.763zM256 431.001c-96.651 0-175.002-78.351-175.002-175.001s78.351-175.002 175.002-175.002c96.651 0 175 78.351 175 175.002 0 96.65-78.349 175.001-175 175.001z"/>
<path fill="#3d91b0" d="M366.333 306.426c-7.585 0-14.086 4.635-16.844 11.23l-37.224-12.049c.656-2.059 1.019-4.248 1.019-6.525 0-11.834-9.575-21.426-21.388-21.426-5.664 0-10.799 2.221-14.625 5.822l-17.894-17.617c6.097-6.264 9.858-14.82 9.858-24.261 0-9.422-3.747-17.963-9.822-24.224l24.264-25.243c2.883 2.948 6.896 4.783 11.338 4.783 8.77 0 15.876-7.121 15.876-15.905 0-6.002-3.319-11.225-8.221-13.932l8.107-18.166c1.369 .564 2.866 .88 4.438 .88 6.454 0 11.686-5.241 11.686-11.706s-5.23-11.706-11.686-11.706c-6.452 0-11.685 5.241-11.685 11.706 0 4.055 2.061 7.628 5.188 9.728l-8.169 18.304c-1.726-.645-3.585-1.014-5.534-1.014-4.134 0-7.885 1.596-10.709 4.188l-26.855-26.441c1.445-2.065 2.301-4.575 2.301-7.289 0-7.027-5.688-12.724-12.702-12.724-7.014 0-12.7 5.696-12.7 12.724 0 7.027 5.686 12.724 12.7 12.724 3.466 0 6.604-1.395 8.896-3.649l26.755 26.341c-2.225 2.737-3.561 6.226-3.561 10.031 0 3.488 1.133 6.703 3.033 9.325l-24.435 25.42c-6.147-5.543-14.28-8.919-23.203-8.919-15.794 0-29.114 10.574-33.314 25.039l-45.121-11.025c.125-.835 .21-1.684 .21-2.555 0-9.487-7.677-17.177-17.146-17.177-9.469 0-17.146 7.69-17.146 17.177 0 9.486 7.676 17.177 17.146 17.177 7.792 0 14.36-5.212 16.445-12.344l45.037 11.005c-.526 2.406-.811 4.902-.811 7.466 0 11.02 5.125 20.836 13.111 27.204l-20.828 25.551c-3.756-2.765-8.391-4.399-13.41-4.399-12.525 0-22.679 10.172-22.679 22.721 0 12.548 10.154 22.722 22.679 22.722 12.526 0 22.68-10.174 22.68-22.722 0-6.684-2.881-12.692-7.466-16.85l20.892-25.628c5.602 3.884 12.394 6.165 19.722 6.165 8.903 0 17.02-3.362 23.163-8.886l17.958 17.683c-3.203 3.746-5.149 8.603-5.149 13.922 0 7.712 4.08 14.451 10.183 18.226l-23.281 49.654c-1.944-.707-4.032-1.111-6.22-1.111-10.083 0-18.257 8.188-18.257 18.289 0 10.103 8.174 18.291 18.257 18.291 10.083 0 18.257-8.188 18.257-18.291 0-7.082-4.025-13.211-9.901-16.25l23.193-49.468c2.778 1.323 5.876 2.086 9.157 2.086 8.716 0 16.199-5.229 19.531-12.722l37.317 12.078c-.425 1.548-.67 3.169-.67 4.851 0 10.103 8.173 18.291 18.257 18.291 10.083 0 18.256-8.188 18.256-18.291 .002-10.101-8.171-18.289-18.254-18.289z"/>
</svg>
