<svg xmlns="http://www.w3.org/2000/svg" viewBox="0 0 200 200"><path d="M183.07 79.76A86.52 86.52 0 0 0 172.72 56c3.43-4.83 6.72-9.77 9.77-15l-23.56-23.49c-5.36 3.14-10.44 6.54-15.41 10.09a85.52 85.52 0 0 0-23-9.49c-1-6-2.23-12.07-3.81-18.11H83.33c-1.56 5.92-2.73 11.84-3.73 17.76a85.85 85.85 0 0 0-23.71 9.4c-4.77-3.39-9.66-6.65-14.81-9.65L17.51 41.07c2.84 4.85 5.89 9.48 9.06 14a86.08 86.08 0 0 0-11 24.9C10.36 80.89 5.19 82 0 83.33v33.34c4.83 1.26 9.64 2.28 14.47 3.16A86.08 86.08 0 0 0 25.15 147c-2.67 3.85-5.24 7.81-7.64 11.93l23.57 23.57c4-2.32 7.79-4.78 11.51-7.34a86.16 86.16 0 0 0 27.84 11.6c.81 4.42 1.76 8.84 2.9 13.25h33.34c1.18-4.53 2.14-9.05 3-13.59a85.82 85.82 0 0 0 27.14-11.72c3.93 2.72 8 5.35 12.14 7.8l23.56-23.57c-2.62-4.47-5.44-8.76-8.37-13a86.18 86.18 0 0 0 10-25.91c5.28-.93 10.57-2 15.85-3.38V83.33c-5.63-1.46-11.28-2.61-16.92-3.57zm-58.44 80.09a63 63 0 0 1-49.54.47.27.27 0 0 0 0-.13s0 .06-.08.07A63.26 63.26 0 0 1 40.62 125c-.11-.28-.23-.56-.32-.84a62.84 62.84 0 0 1 1.23-47c.36-.86.75-1.7 1.17-2.54a63.42 63.42 0 0 1 31.87-30.39c1.38-.59 2.78-1.14 4.21-1.63a63 63 0 0 1 20.55-3.44A62.34 62.34 0 0 1 120.92 43c1.58.58 3.12 1.21 4.64 1.91a63.26 63.26 0 0 1 30.36 29.59c.6 1.21 1.16 2.46 1.68 3.72a63 63 0 0 1 1.18 44.78c-.24.7-.49 1.4-.77 2.08a63.31 63.31 0 0 1-33 34.58 3.79 3.79 0 0 1-.38.19z M144.72 121.82a12.66 12.66 0 0 0-21.27-6.52l-10-7.44a17.3 17.3 0 0 0-4.56-22.6L117 71.39a8.63 8.63 0 1 0-3.46-2l-8.08 13.87a17.26 17.26 0 0 0-22.29 7.86L66 84.37v-.17a8 8 0 1 0-1.49 3.9l17.19 6.74a17.28 17.28 0 0 0 5.84 17.68l-8 12.47a10.69 10.69 0 1 0 3.37 2.16l8-12.46a17.3 17.3 0 0 0 20.15-3.64l10 7.47a12.66 12.66 0 1 0 23.65 3.3z" fill="#fff"/></svg>