<svg xmlns="http://www.w3.org/2000/svg" xml:space="preserve" viewBox="0 0 200 200"><defs><linearGradient id="a" x1=".1" x2=".9" y1=".1" y2=".9"><stop stop-color="#45afe4"/><stop offset="1" stop-color="#364f9e"/></linearGradient></defs><path fill="url(#a)" d="M183 79.8A86.5 86.5 0 0 0 172.8 56c3.5-4.8 6.7-9.8 9.8-15L159 17.5c-5.3 3.2-10.4 6.6-15.4 10.1a84 84 0 0 0-23-9.5c-1-6-2.2-12-3.8-18.1H83.3c-1.5 6-2.7 11.8-3.7 17.8a85 85 0 0 0-23.7 9.4A181 181 0 0 0 41 17.5L17.5 41.1c2.9 4.8 5.9 9.4 9 14-5 7.7-8.7 16.1-11 24.9-5.1.9-10.3 2-15.5 3.3v33.4c4.8 1.2 9.6 2.2 14.5 3.1A85.9 85.9 0 0 0 25 147c-2.6 3.9-5.2 7.8-7.6 12L41 182.5c4-2.3 7.8-4.8 11.5-7.3a85 85 0 0 0 27.8 11.6c.8 4.4 1.8 8.8 3 13.2h33.3c1.1-4.5 2.1-9 3-13.6a87 87 0 0 0 27.1-11.7c4 2.7 8 5.3 12.1 7.8l23.6-23.6c-2.6-4.4-5.4-8.8-8.4-13a86 86 0 0 0 10-25.9c5.3-1 10.6-2 15.9-3.4V83.3c-5.6-1.4-11.3-2.6-16.9-3.5zm-58.4 80a63 63 0 0 1-49.5.5v-.1A63.6 63.6 0 0 1 40.5 125c0-.3-.2-.6-.3-.8a62.7 62.7 0 0 1 1.2-47l1.2-2.6a63.8 63.8 0 0 1 56.6-35.4A62.6 62.6 0 0 1 156 74.5l1.7 3.7a62.9 62.9 0 0 1 1.2 44.8l-.8 2a63.4 63.4 0 0 1-33 34.7l-.5.1zm20.1-38a12.6 12.6 0 0 0-15.1-9.7c-2.3.5-4.4 1.6-6.1 3.2l-10-7.4a17.3 17.3 0 0 0-4.6-22.6l8.1-14a8.7 8.7 0 0 0 10.7-5.9 8.7 8.7 0 0 0-5.9-10.7 8.6 8.6 0 0 0-8.3 14.6l-8 14c-8.3-3.7-18-.3-22.3 7.7L66 84.4v-.2a8 8 0 1 0-15.9-1.7 8 8 0 0 0 14.4 5.6l17.2 6.7c-1.7 6.5.6 13.4 5.8 17.7l-8 12.5c-5.5-2.2-11.7.4-13.9 5.9-2.2 5.5.4 11.7 5.9 13.9 5.5 2.2 11.7-.4 13.9-5.9 1.6-4.1.6-8.7-2.5-11.7l8-12.5c6.8 3.3 15 1.8 20.2-3.7l10 7.5a12.7 12.7 0 1 0 23.6 3.3z"/></svg>