<svg xmlns="http://www.w3.org/2000/svg" viewBox="0 0 349 100" fill="white"><path d="M0 78.1 9.8 66c4 3.7 8.8 6.8 13.8 9.1 4.4 2 9.2 3 14 2.9 5.2 0 9.3-1 12.3-2.8 3-1.9 4.6-4.4 4.6-7.6a7.8 7.8 0 0 0-3.1-6.5c-2-1.6-5.6-2.8-10.4-3.6l-16.4-2.8a28 28 0 0 1-16-7.4A20.2 20.2 0 0 1 3 32.6a22 22 0 0 1 8.7-18.3 38.2 38.2 0 0 1 23.8-6.7 56.6 56.6 0 0 1 34 11.5L60.4 32c-4-3.1-8.3-5.7-13-7.5a36.7 36.7 0 0 0-13-2.4 21 21 0 0 0-11 2.5c-2.8 1.7-4.2 4-4.1 6.8a7 7 0 0 0 2.7 5.9 20 20 0 0 0 9 3l15.6 2.6c8.2 1.4 14.3 4 18.4 7.9 4.2 3.8 6.2 9 6.2 15.3a22.8 22.8 0 0 1-9.5 19.2 40.8 40.8 0 0 1-25.2 7.2A55.3 55.3 0 0 1 0 78.2Zm106.5 13.1L73 8.8h18.5l25.2 65.1 25.8-65.1h17.7l-34 82.4h-19.7Zm91.9-48v13.6h25v.3A23.6 23.6 0 0 1 220 67a20.5 20.5 0 0 1-4.9 5.1 25.5 25.5 0 0 1-15 4.9 26.6 26.6 0 0 1-18.8-7.8 25.3 25.3 0 0 1-6.6-11.8 28.7 28.7 0 0 1 .3-16l.7-2a26.6 26.6 0 0 1 5.4-8.5l.8-.8a25 25 0 0 1 17.7-7h1.8c3.5.2 7 1.1 10.1 2.6l.4.2c4 1.9 7.4 4.6 10.1 8l11.9-11c-4-5-9.2-8.8-15-11.3a46 46 0 0 0-19.3-4.1H198a44.1 44.1 0 0 0-34.5 18.6 42.3 42.3 0 0 0 19.2 63.1 44.7 44.7 0 0 0 42-4.6 40.2 40.2 0 0 0 15.9-26.1c.4-2.8.6-5.6.6-8.4v-6.9h-42.7Z"/><path d="M340.1 39.9c-1.1-4.2-2.8-8.2-5.1-11.9 1.7-2.4 3.4-4.9 4.9-7.5L328 8.7c-2.7 1.6-5.2 3.3-7.7 5.1-3.5-2.1-7.4-3.8-11.4-4.8-.6-3-1.2-6-2-9h-16.6c-.8 3-1.4 6-1.9 9-4.2.9-8.1 2.5-11.8 4.6-2.4-1.7-4.9-3.3-7.5-4.8l-11.7 11.7c1.4 2.5 3 4.8 4.5 7-2.5 3.9-4.3 8-5.5 12.5-2.6.5-5.2 1-7.8 1.7v16.6c2.4.7 4.8 1.2 7.3 1.6 1 4.8 2.8 9.4 5.3 13.6-1.4 2-2.6 4-3.8 6l11.8 11.8c2-1.2 3.9-2.4 5.7-3.7 4.3 2.7 9 4.7 14 5.8.3 2.2.8 4.4 1.4 6.6H307c.6-2.2 1-4.5 1.5-6.8 4.8-1.2 9.4-3.2 13.5-5.9l6 4 12-11.8c-1.3-2.2-2.7-4.4-4.2-6.5 2.3-4 4-8.4 5-13 2.6-.5 5.2-1 7.9-1.7V41.7c-2.8-.8-5.6-1.3-8.6-1.8zm-29.2 40c-15.9 7-34.5-.3-41.5-16.2-.2-.4-.3-.8-.5-1.2V62a31.56 31.56 0 0 1 18.4-40.6c16.3-6.1 34.4 2.1 40.6 18.4A31.4 31.4 0 0 1 311 79.7l-.2.1h.1zM321 61c-.6-3.4-3.9-5.7-7.3-5.1-1.2.2-2.4.8-3.3 1.7l-5-3.7a8.6 8.6 0 0 0-2.3-11.3l4-6.9c2.3.7 4.7-.6 5.4-2.8.7-2.3-.6-4.7-2.8-5.4-2.3-.7-4.7.6-5.4 2.8-.5 1.6 0 3.3 1.1 4.4l-4 6.9c-4.2-1.8-9-.1-11.1 4l-8.6-3.4V42c.2-2.2-1.3-4.2-3.5-4.4-2.2-.2-4.2 1.3-4.4 3.5s1.3 4.2 3.5 4.4c1.4.2 2.8-.4 3.6-1.5l8.6 3.3c-.8 3.2.3 6.7 2.9 8.8l-4 6.3c-1.9-.8-4.1-.4-5.6 1-2.1 2-2.2 5.4-.2 7.5 2 2.1 5.4 2.2 7.5.2 2.1-2 2.2-5.4.2-7.5l-.2-.2 4-6.2c3.4 1.7 7.5.9 10.1-1.8l5 3.7a6.3 6.3 0 1 0 11.2 5.8c.6-1.2.8-2.6.6-3.9z"/></svg>